<svg width="5" height="6" viewBox="0 0 5 6" fill="none" xmlns="http://www.w3.org/2000/svg">
<path d="M0.16 6L2.744 3.272C2.94667 3.05867 3.104 2.856 3.216 2.664C3.328 2.46667 3.384 2.256 3.384 2.032C3.384 1.88267 3.34667 1.74133 3.272 1.608C3.20267 1.47467 3.096 1.36533 2.952 1.28C2.81333 1.19467 2.64 1.152 2.432 1.152C2.112 1.152 1.85867 1.264 1.672 1.488C1.49067 1.70667 1.4 2.00533 1.4 2.384H0.464C0.464 1.984 0.538667 1.62933 0.688 1.32C0.842667 1.00533 1.06667 0.757333 1.36 0.576C1.65867 0.394667 2.02133 0.304 2.448 0.304C2.77333 0.304 3.056 0.357333 3.296 0.464C3.536 0.565333 3.73333 0.701333 3.888 0.872C4.048 1.03733 4.16533 1.21867 4.24 1.416C4.32 1.608 4.36 1.79733 4.36 1.984C4.36 2.27733 4.288 2.56 4.144 2.832C4.00533 3.09867 3.82133 3.34133 3.592 3.56L2.008 5.12H4.432V6H0.16Z" fill="white"/>
</svg>
